Coordinates
version=1
nRows=19
nColumns=18
inDegrees=yes

Units are S.I. units (second, meters, Newtons, ...)
If the header above contains a line with 'inDegrees', this indicates whether rotational values are in degrees (yes) or radians (no).

endheader
time	ground_thorax_rot_x	ground_thorax_rot_y	ground_thorax_rot_z	ground_thorax_tx	ground_thorax_ty	ground_thorax_tz	clav_prot	clav_elev	scapula_abduction	scapula_elevation	scapula_upward_rot	scapula_winging	plane_elv	shoulder_elv	axial_rot	elbow_flexion	pro_sup
      3.97000000	      0.11171890	     -9.48593778	    -11.71670229	      0.00000000	      0.00000000	      0.00000000	    -42.05832511	      8.71576917	      3.86109736	     -1.82816052	     82.70683114	    -10.50284348	     37.91095011	     86.26148319	    -11.96727020	      0.00000000	     34.32000000
      3.98000000	     -0.09001886	     -9.29804047	    -11.86333651	      0.00000000	      0.00000000	      0.00000000	    -42.17331196	      8.51531398	      3.42017408	     -2.01853610	     82.33701317	    -10.58254529	     38.41188950	     86.14445585	    -11.91302939	      0.00000000	     34.32000000
      3.99000000	      0.02039693	     -9.45939399	    -11.77696372	      0.00000000	      0.00000000	      0.00000000	    -42.05276543	      8.77003345	      3.53753954	     -1.83903988	     82.29767380	    -10.58236792	     38.71496733	     85.95531777	    -11.97499288	      0.00000000	     34.32000000
      4.00000000	      0.04121627	     -9.43235111	    -11.91902326	      0.00000000	      0.00000000	      0.00000000	    -42.01527994	      8.78817136	      3.57807288	     -1.82633189	     82.27212401	    -10.56896660	     38.79347450	     85.89820912	    -11.99444027	      0.00000000	     34.32000000
      4.01000000	      0.03010237	     -9.61277562	    -11.77185090	      0.00000000	      0.00000000	      0.00000000	    -41.67592279	      8.90744786	      3.85516918	     -1.75712407	     81.91226918	    -10.45999205	     39.19733507	     86.06762656	    -12.79019643	      0.00000000	     34.32000000
      4.02000000	     -0.06990050	     -9.44419240	    -11.86055864	      0.00000000	      0.00000000	      0.00000000	    -41.71424669	      8.73533665	      3.67148593	     -1.90076469	     81.71111932	    -10.47310856	     39.62703462	     85.92334476	    -12.89828976	      0.00000000	     34.32000000
      4.03000000	      0.05673934	     -9.55188390	    -11.70317350	      0.00000000	      0.00000000	      0.00000000	    -41.61385437	      8.93488359	      3.85464786	     -1.74778834	     81.78339829	    -10.45181471	     40.04101408	     85.58358254	    -13.05917815	      0.00000000	     34.32000000
      4.04000000	      0.06091952	     -9.47044394	    -11.87396730	      0.00000000	      0.00000000	      0.00000000	    -41.56878926	      8.95785842	      3.91308463	     -1.73027237	     81.76491666	    -10.43463579	     40.12654999	     85.56208510	    -13.07758730	      0.00000000	     34.32000000
      4.05000000	      0.15587160	     -9.91380836	    -11.75047052	      0.00000000	      0.00000000	      0.00000000	    -40.99846160	      9.13518402	      4.59864567	     -1.59745392	     81.43029385	    -10.20632806	     40.48138802	     85.94627500	    -14.00085276	      0.00000000	     34.32000000
      4.06000000	      0.01060008	    -10.06501809	    -11.83893190	      0.00000000	      0.00000000	      0.00000000	    -40.76505102	      8.91749858	      4.86157318	     -1.75315363	     81.18347583	    -10.06431307	     40.75406760	     85.65720857	    -13.68362299	      0.00000000	     34.32000000
      4.07000000	     -0.01383206	    -10.23417801	    -11.82529360	      0.00000000	      0.00000000	      0.00000000	    -40.47735059	      8.83712003	      5.16144759	     -1.81370562	     80.90507091	     -9.93098589	     40.97775815	     85.33189494	    -13.75566479	      0.00000000	     34.32000000
      4.08000000	     -0.01347105	    -10.37478975	    -11.83276062	      0.00000000	      0.00000000	      0.00000000	    -40.13971153	      8.71950731	      5.55476585	     -1.89539101	     80.62328048	     -9.76413370	     41.22645662	     85.12920872	    -13.57553559	      0.00000000	     34.32000000
      4.09000000	     -0.27435404	    -10.08512625	    -12.09120841	      0.00000000	      0.00000000	      0.00000000	    -40.08657107	      8.24586344	      5.30874844	     -2.27453851	     80.05996335	     -9.70512640	     41.83940560	     85.28433875	    -13.25396865	      0.00000000	     34.32000000
      4.10000000	      0.17572706	    -10.36112473	    -11.79470512	      0.00000000	      0.00000000	      0.00000000	    -39.72725992	      8.90462935	      5.80968774	     -1.78975693	     80.09369796	     -9.67049261	     42.27434460	     85.25869367	    -14.65318742	      0.00000000	     34.32000000
      4.11000000	      0.01193431	    -10.21669576	    -11.88758004	      0.00000000	      0.00000000	      0.00000000	    -39.67912537	      8.78317678	      5.63126370	     -1.90646173	     79.73079238	     -9.67186823	     42.94034777	     85.07551694	    -14.93516056	      0.00000000	     34.32000000
      4.12000000	     -0.32212167	     -9.96524406	    -12.11120366	      0.00000000	      0.00000000	      0.00000000	    -39.64079850	      8.36227005	      5.27292934	     -2.25691151	     79.07705473	     -9.64528773	     43.75435905	     84.85665907	    -13.86051218	      0.00000000	     34.32000000
      4.13000000	     -0.13717551	    -10.09521356	    -12.16062521	      0.00000000	      0.00000000	      0.00000000	    -39.47915806	      8.36774861	      5.48296661	     -2.24814048	     78.98873134	     -9.57528318	     44.39078575	     84.51896659	    -14.02028037	      0.00000000	     34.32000000
      4.14000000	     -0.08927854	    -10.16458285	    -11.98490076	      0.00000000	      0.00000000	      0.00000000	    -39.21490308	      8.53292282	      5.59298607	     -2.15064860	     78.59991169	     -9.53599970	     45.01374162	     84.03662317	    -13.50223305	      0.00000000	     34.32000000
      4.15000000	     -0.16868912	    -10.07713859	    -12.05466339	      0.00000000	      0.00000000	      0.00000000	    -39.06066990	      8.41863605	      5.53329572	     -2.25772588	     78.15794680	     -9.49088440	     45.61222618	     83.76371413	    -12.95778928	      0.00000000	     34.32000000
